<svg id="visual" viewBox="0 0 960 540" width="960" height="540" xmlns="http://www.w3.org/2000/svg" xmlns:xlink="http://www.w3.org/1999/xlink" version="1.1"><rect x="0" y="0" width="960" height="540" fill="#FFFFFF"></rect><defs><linearGradient id="grad1_0" x1="43.8%" y1="100%" x2="100%" y2="0%"><stop offset="14.444444444444446%" stop-color="#ffffff" stop-opacity="1"></stop><stop offset="85.55555555555554%" stop-color="#ffffff" stop-opacity="1"></stop></linearGradient></defs><defs><linearGradient id="grad2_0" x1="0%" y1="100%" x2="56.3%" y2="0%"><stop offset="14.444444444444446%" stop-color="#ffffff" stop-opacity="1"></stop><stop offset="85.55555555555554%" stop-color="#ffffff" stop-opacity="1"></stop></linearGradient></defs><g transform="translate(960, 540)"><path d="M-351 0C-313.3 -44.6 -275.7 -89.2 -251.1 -145C-226.6 -200.8 -215.2 -267.8 -175.5 -304C-135.8 -340.2 -67.9 -345.6 0 -351L0 0Z" fill="#3ca4fa"></path></g><g transform="translate(0, 0)"><path d="M351 0C308.7 41.9 266.5 83.9 242.5 140C218.5 196.1 212.9 266.4 175.5 304C138.1 341.5 69.1 346.3 0 351L0 0Z" fill="#3ca4fa"></path></g></svg>