<svg id="canvas" height="auto" xmlns="http://www.w3.org/2000/svg" version="1.1" xmlns:xlink="http://www.w3.org/1999/xlink" xmlns:svgjs="http://svgjs.dev/svgjs" viewBox="0 0 400 800" width="auto" style="width: auto; height: auto;"><rect width="400" height="800" fill="#ffffffff"/><path d="M129.26587048018484 327.23976350864336C89.53178033921984 343.63051207665774 34.632367682648066 328.62774847416597 -11.697279251148757 327.71210380228763C-58.02692618494558 326.7964591304093 -109.49097924250623 333.40223242231 -148.7120111225961 321.7458954773731C-187.93304300268596 310.0895585324362 -214.928508452452 286.4409693070636 -247.023470531688 257.77408213266585C-279.11843261092395 229.1071949582681 -325.7632260977695 198.5757092600985 -341.28178359801194 149.74457243098664C-356.80034109825436 100.91343560187471 -339.6030097821572 16.779760187877173 -340.13481553314267 -35.21273884200559C-340.66662128412815 -87.20523787188836 -358.86410129785816 -126.22495062698084 -344.47261810392473 -162.21042174831013C-330.0811349099913 -198.1958928696394 -287.2646102549957 -221.62906030935557 -253.78591636954195 -251.12556556998132C-220.3072224840882 -280.6220708306071 -177.81729147534875 -323.45862452289407 -143.60045479120214 -339.1894533120647C-109.38361810705555 -354.92028210123533 -84.82694273978291 -344.938773359447 -48.484896264662325 -345.5105383050052C-12.142849789541742 -346.08230325056337 34.44848066761182 -356.9633171084581 74.45182405952147 -342.62004298541393C114.45516745143112 -328.27676886236975 158.32717432207244 -289.7851294205285 191.5351640867956 -259.4508935667402C224.74315385151874 -229.11665771295196 256.1549553078112 -199.4436957896767 273.6997626478601 -160.61462786268427C291.244569987909 -121.78555993569185 294.83164576087177 -70.55632666911231 296.804008127089 -26.47648600478567C298.7763704933062 17.60335465954097 297.21672793390496 61.223733056777576 285.5339368451637 103.86441612327542C273.8511457564224 146.5050991897732 252.7519393221378 192.13838782997323 226.7072615946413 229.36761239420127C200.6625838671448 266.5968369584293 168.99996062114985 310.849014940629 129.26587048018484 327.23976350864336C89.53178033921984 343.63051207665774 34.632367682648066 328.62774847416597 -11.697279251148757 327.71210380228763 " fill="#55b8ffff"/><path d="M544.6999365112256 1248.2620377289356C499.8931676209734 1257.0746124616062 424.56518910653483 1211.5165991734661 374.80113151604877 1201.959174569198C325.0370739255627 1192.4017499649299 284.62354611542935 1210.8816196663438 246.1155909683093 1190.917490103327C207.6076358211893 1170.9533605403103 174.26956988072988 1115.8607723298423 143.75340063332865 1082.1743971910973C113.23723138592744 1048.488022052352 78.58371510982673 1020.4239345804194 63.018575483902055 988.7992392708563C47.45343585797739 957.1745439612932 50.023302381179754 930.7130302993944 50.36256287778065 892.4262253337188C50.70182337438154 854.1394203680431 48.23499607373081 798.3628806104132 65.0541384635074 759.0784094768021C81.87328085328399 719.7939383431913 118.8384177332765 688.0254088491168 151.27741721644017 656.719398532053C183.71641669960383 625.4133882149893 219.8879147661616 588.1615586873488 259.68813536248945 571.2423475744192C299.48835595881724 554.3231364614898 345.92496847163505 555.2892440634832 390.07874079440705 555.2041318544758C434.23251311717905 555.1190196454684 478.5281095431923 552.2855800556717 524.6107692991216 570.7316743203746C570.6934290550508 589.1777685850776 627.3530984370086 631.7607822061323 666.5746993299828 665.8806974426936C705.7963002229569 700.0006126792553 742.6868633136719 732.4487624139248 759.9403746569664 775.4511657397437C777.1938860002608 818.4535690655625 768.5097120117066 874.9227188738544 770.0957673897499 923.895117397607C771.6818227677932 972.8675159213594 790.5323773472575 1031.754122086331 769.4567069252262 1069.2855568822588C748.3810365031949 1106.8169916781867 681.1012065932287 1119.254312698728 643.6417448575619 1149.083726173174C606.1822831218951 1178.9131396476203 589.5067054014777 1239.449462996265 544.6999365112256 1248.2620377289356C499.8931676209734 1257.0746124616062 424.56518910653483 1211.5165991734661 374.80113151604877 1201.959174569198 " fill="#55b8ffff" transform="matrix(-1,1.2246467991473532e-16,-1.2246467991473532e-16,-1,829.3659667968751,1804.3870849609375)"/></svg>